<svg width="20" height="20" viewBox="0 0 20 20" fill="none" xmlns="http://www.w3.org/2000/svg">
<path d="M5.83334 17.5C5.37501 17.5 4.98265 17.3368 4.65626 17.0104C4.32987 16.684 4.16668 16.2917 4.16668 15.8333V5.41667C4.16668 5.18655 3.98013 5 3.75001 5V5C3.51989 5 3.33334 4.81345 3.33334 4.58333V3.83333C3.33334 3.55719 3.5572 3.33333 3.83334 3.33333H7.08334C7.31346 3.33333 7.50001 3.14679 7.50001 2.91667V2.91667C7.50001 2.68655 7.68656 2.5 7.91668 2.5H12.0833C12.3135 2.5 12.5 2.68655 12.5 2.91667V2.91667C12.5 3.14679 12.6866 3.33333 12.9167 3.33333H16.1667C16.4428 3.33333 16.6667 3.55719 16.6667 3.83333V4.58333C16.6667 4.81345 16.4801 5 16.25 5V5C16.0199 5 15.8333 5.18655 15.8333 5.41667V15.8333C15.8333 16.2917 15.6701 16.684 15.3438 17.0104C15.0174 17.3368 14.625 17.5 14.1667 17.5H5.83334ZM14.1667 5.5C14.1667 5.22386 13.9428 5 13.6667 5H6.33334C6.0572 5 5.83334 5.22386 5.83334 5.5V15.3333C5.83334 15.6095 6.0572 15.8333 6.33334 15.8333H13.6667C13.9428 15.8333 14.1667 15.6095 14.1667 15.3333V5.5ZM7.50001 13.6667C7.50001 13.9428 7.72387 14.1667 8.00001 14.1667H8.66668C8.94282 14.1667 9.16668 13.9428 9.16668 13.6667V7.16667C9.16668 6.89052 8.94282 6.66667 8.66668 6.66667H8.00001C7.72387 6.66667 7.50001 6.89052 7.50001 7.16667V13.6667ZM10.8333 13.6667C10.8333 13.9428 11.0572 14.1667 11.3333 14.1667H12C12.2762 14.1667 12.5 13.9428 12.5 13.6667V7.16667C12.5 6.89052 12.2762 6.66667 12 6.66667H11.3333C11.0572 6.66667 10.8333 6.89052 10.8333 7.16667V13.6667Z" fill="#EB5757"/>
</svg>
