<svg width="29" height="29" viewBox="0 0 29 29" fill="none" xmlns="http://www.w3.org/2000/svg">
<path d="M0 0H29V14.5849C29 18.3238 27.0054 21.7788 23.7676 23.6485L14.5 29L5.23246 23.6485C1.99458 21.7788 3.32377e-06 18.3238 3.32377e-06 14.5849L0 0Z" fill="#FFDD2D"/>
<path fill-rule="evenodd" clip-rule="evenodd" d="M8 8V12.5585C8.61641 11.8546 9.73715 11.3782 11.0186 11.3782H12.4111V16.6774C12.4111 18.0872 12.0323 19.3212 11.4703 20H17.5276C16.9667 19.3205 16.5888 18.0881 16.5888 16.6801V11.3782H17.9814C19.2629 11.3782 20.3836 11.8546 21 12.5585V8C21 8 8 8 8 8Z" fill="#333333"/>
</svg>
